# xmcd
#
# Track frame offsets:
#	225
#	16912
#	51645
#	73697
#	87020
#	105500
#	128680
#	146172
#	162237
#	180130
#	195817
#	220680
#	255187
#
# Disc length: 3902 seconds
#
# Revision: 6
# Processed by: cddbd v1.5PL3 Copyright (c) Steve Scherf et al.
# Submitted via: EasyCDDAExtractor 7.0.5.4
#
DISCID=a20f3b0d
DTITLE=Alabama - Alabama Live
DYEAR=1988
DGENRE=Country
TTITLE0=Can't Keep A Good Man Down (Live)
TTITLE1=Tennessee River (Live)
TTITLE2=Take Me Down (Live)
TTITLE3=Love In The First Degree (Live)
TTITLE4=Red River (Live)
TTITLE5=Dixieland Delight (Live)
TTITLE6=Lady Down On Love (Live)
TTITLE7=If You're Gonna Play In Texas
TTITLE8=Fireworks
TTITLE9=There's No Way - When We Make Love
TTITLE10=Gonna Have A Party
TTITLE11=Can't You See
TTITLE12=My Home's In Alabama
EXTD=
EXTT0=
EXTT1=
EXTT2=
EXTT3=
EXTT4=
EXTT5=
EXTT6=
EXTT7=
EXTT8=
EXTT9=
EXTT10=
EXTT11=
EXTT12=
PLAYORDER=
